<?xml version="1.0" standalone="no"?>
<!DOCTYPE svg PUBLIC "-//W3C//DTD SVG 20010904//EN"
 "http://www.w3.org/TR/2001/REC-SVG-20010904/DTD/svg10.dtd">
<svg version="1.0" xmlns="http://www.w3.org/2000/svg"
 width="350.000000pt" height="350.000000pt" viewBox="0 0 350.000000 350.000000"
 preserveAspectRatio="xMidYMid meet">
<metadata>
Created by potrace 1.14, written by Peter Selinger 2001-2017
</metadata>
<g transform="translate(0.000000,350.000000) scale(0.100000,-0.100000)"
fill="#000000" stroke="none">
<path d="M1589 3456 c-2 -2 -35 -6 -73 -10 -545 -51 -1086 -450 -1332 -981
-115 -248 -162 -492 -151 -775 12 -287 74 -509 212 -760 134 -242 362 -482
590 -619 302 -183 571 -257 915 -255 272 3 459 46 723 168 319 148 607 430
775 761 152 298 206 573 180 915 -30 408 -210 785 -515 1081 -250 243 -573
407 -908 460 -65 11 -407 23 -416 15z m211 -2930 c0 -20 -59 -46 -84 -37 -11
4 -26 18 -34 29 -14 22 -14 22 52 22 49 0 66 -3 66 -14z m-32 -118 c2 -32 -1
-59 -5 -59 -37 -6 -53 -5 -54 5 -9 91 0 119 35 114 18 -3 21 -11 24 -60z m-18
-103 c0 -16 -6 -25 -15 -25 -9 0 -15 9 -15 25 0 16 6 25 15 25 9 0 15 -9 15
-25z m0 -100 c0 -16 -6 -25 -15 -25 -9 0 -15 9 -15 25 0 16 6 25 15 25 9 0 15
-9 15 -25z"/>
</g>
</svg>
